# xmcd
#
# Track frame offsets:
#  150
#  9322
#  26005
#  37524
#  51789
#  64431
#  77249
#  93996
#  106550
#  120255
#  134351
#  146560
#  158410
#  177026
#  189183
#  204177
#  215880
#  229145
#  242649
#  257583
#
# Disc length: 3594 seconds
#
# Revision: 0
# Processed by: cddbd v1.5.1PL0 Copyright (c) Steve Scherf et al.
# Submitted via: AltoMP3_Maker 3.0
#
DISCID=f70e0814
DTITLE=Sammy Davis Jr - 2o Outstanding Performances
DYEAR=1900
DGENRE=
TTITLE0=With A Song In My Heart
TTITLE1=The Birth Of The Blues
TTITLE2=As Long As She Needs Me
TTITLE3=Bye, Bye Blackbird
TTITLE4=Where Or When
TTITLE5=You're Nobody Till Somebody Loves you
TTITLE6=Any Place I Hang My Hat Is Home
TTITLE7=On A Clear Day You Can See Forever
TTITLE8=Another Spring
TTITLE9=Come Back To Me
TTITLE10=The Good Life
TTITLE11=Ev'ry Time We Say Goodbye
TTITLE12=The Shadow Of Your Smile
TTITLE13=The Impossible Dream
TTITLE14=Without A Song
TTITLE15=Once In Love With Amy
TTITLE16=What Now My Love?
TTITLE17=What Kind Of Fool Am I?
TTITLE18=If It's The Last Thing I Do
TTITLE19=Please Don't Talk About Me When I'm Gone
EXTD=
EXTT0=
EXTT1=
EXTT2=
EXTT3=
EXTT4=
EXTT5=
EXTT6=
EXTT7=
EXTT8=
EXTT9=
EXTT10=
EXTT11=
EXTT12=
EXTT13=
EXTT14=
EXTT15=
EXTT16=
EXTT17=
EXTT18=
EXTT19=
PLAYORDER=
